<svg width="100%" height="100%" viewBox="0 0 2402 117" preserveAspectRatio="xMinYMid meet" fill="none" xmlns="http://www.w3.org/2000/svg">
<path d="M2365.58 116.16C2347.18 116.16 2332.62 108.64 2324.78 93.92L2344.14 78.08C2349.1 85.92 2357.26 92.16 2365.1 92.16C2372.3 92.16 2375.98 89.44 2375.98 84C2375.98 78.88 2372.3 75.68 2362.7 71.36L2356.3 68.48C2339.02 60.8 2329.74 48.16 2329.74 32.8C2329.74 12.96 2346.38 0 2364.3 0C2376.94 0 2386.54 3.20001 2396.14 14.24L2378.86 32.48C2373.1 25.44 2369.58 24 2364.3 24C2359.98 24 2355.5 26.72 2355.5 31.84C2355.5 37.76 2360.46 40.96 2370.86 45.6L2376.94 48.32C2392.78 55.36 2401.74 66.56 2401.74 82.4C2401.74 102.88 2386.54 116.16 2365.58 116.16Z" fill="#0000FF"/>
<path d="M2245.28 114.88V1.28H2315.68V26.56H2270.88V45.76H2306.08V70.4H2270.88V89.6H2315.68V114.88H2245.28Z" fill="#0000FF"/>
<path d="M2206.4 114.88L2171.2 68.8H2170.88V114.88H2145.28V1.28H2188.16C2206.72 1.28 2221.92 16.48 2221.92 35.04C2221.92 49.28 2213.28 61.6 2200 66.72L2236.96 114.88H2206.4ZM2170.88 47.2H2185.28C2192.16 47.2 2197.12 42.24 2197.12 36C2197.12 29.76 2192.16 24.64 2185.28 24.64H2170.88V47.2Z" fill="#0000FF"/>
<path d="M2078.38 116.16C2051.02 116.16 2031.82 97.44 2031.82 68.8V1.28H2057.42V69.12C2057.42 83.04 2065.74 91.52 2078.38 91.52C2091.02 91.52 2099.34 83.04 2099.34 69.12V1.28H2124.94V68.8C2124.94 97.44 2105.74 116.16 2078.38 116.16Z" fill="#0000FF"/>
<path d="M1966.21 114.88V26.56H1939.01V1.28H2019.17V26.56H1991.81V114.88H1966.21Z" fill="#0000FF"/>
<path d="M1925.22 116.16L1853.54 55.52V114.88H1827.94V0L1899.62 60.64V1.28H1925.22V116.16Z" fill="#0000FF"/>
<path d="M1740.44 114.88V1.28H1810.84V26.56H1766.04V45.76H1801.24V70.4H1766.04V89.6H1810.84V114.88H1740.44Z" fill="#0000FF"/>
<path d="M1677.65 116.16L1624.05 1.28H1652.53L1677.65 58.08L1702.77 1.28H1731.25L1677.65 116.16Z" fill="#0000FF"/>
<path d="M1579.75 116.16L1508.07 55.52V114.88H1482.47V0L1554.15 60.64V1.28H1579.75V116.16Z" fill="#0000FF"/>
<path d="M1394.97 114.88V1.28H1465.37V26.56H1420.57V45.76H1455.77V70.4H1420.57V89.6H1465.37V114.88H1394.97Z" fill="#0000FF"/>
<path d="M1332.18 116.16L1278.58 1.28H1307.06L1332.18 58.08L1357.3 1.28H1385.78L1332.18 116.16Z" fill="#0000FF"/>
<path d="M1243.87 114.88V1.28H1269.47V114.88H1243.87Z" fill="#0000FF"/>
<path d="M1204.99 114.88L1169.79 68.8H1169.47V114.88H1143.87V1.28H1186.75C1205.31 1.28 1220.51 16.48 1220.51 35.04C1220.51 49.28 1211.87 61.6 1198.59 66.72L1235.55 114.88H1204.99ZM1169.47 47.2H1183.87C1190.75 47.2 1195.71 42.24 1195.71 36C1195.71 29.76 1190.75 24.64 1183.87 24.64H1169.47V47.2Z" fill="#0000FF"/>
<path d="M1055.72 91.52H1069.96C1089 91.52 1101.96 76.48 1101.96 58.08C1101.96 39.68 1089 24.64 1069.96 24.64H1055.72V91.52ZM1030.12 114.88V1.28H1069.96C1101.96 1.28 1127.72 26.72 1127.72 58.08C1127.72 89.44 1101.96 114.88 1069.96 114.88H1030.12Z" fill="#0000FF"/>
<path d="M967.065 81.28V58.24H1012.5V81.28H967.065Z" fill="#0000FF"/>
<path d="M908.459 114.88V67.2L866.379 1.28H896.299L921.259 41.6L946.219 1.28H976.139L934.059 67.2V114.88H908.459Z" fill="#0000FF"/>
<path d="M811.206 114.88V26.56H784.006V1.28H864.166V26.56H836.806V114.88H811.206Z" fill="#0000FF"/>
<path d="M744.655 114.88V1.28H770.255V114.88H744.655Z" fill="#0000FF"/>
<path d="M723.185 116.16L651.505 55.52V114.88H625.905V0L697.585 60.64V1.28H723.185V116.16Z" fill="#0000FF"/>
<path d="M559.001 116.16C531.641 116.16 512.441 97.44 512.441 68.8V1.28H538.041V69.12C538.041 83.04 546.361 91.52 559.001 91.52C571.641 91.52 579.961 83.04 579.961 69.12V1.28H605.561V68.8C605.561 97.44 586.361 116.16 559.001 116.16Z" fill="#0000FF"/>
<path d="M378.874 114.88V0L435.514 56.8L492.154 0V114.88H466.554V59.2L435.514 90.24L404.474 59.2V114.88H378.874Z" fill="#0000FF"/>
<path d="M244.186 114.88V0L300.826 56.8L357.466 0V114.88H331.866V59.2L300.826 90.24L269.786 59.2V114.88H244.186Z" fill="#0000FF"/>
<path d="M169.955 91.52C188.355 91.52 202.275 76.48 202.275 58.08C202.275 39.68 188.355 24.64 169.955 24.64C151.555 24.64 137.635 39.68 137.635 58.08C137.635 76.48 151.555 91.52 169.955 91.52ZM169.955 116.16C137.955 116.16 111.875 90.08 111.875 58.08C111.875 26.08 137.955 0 169.955 0C201.955 0 228.035 26.08 228.035 58.08C228.035 90.08 201.955 116.16 169.955 116.16Z" fill="#0000FF"/>
<path d="M58.08 116.16C26.08 116.16 0 90.08 0 58.08C0 26.08 26.08 0 58.08 0C77.76 0 94.88 9.76001 105.6 24.64L86.24 40.48C80.48 31.04 70.24 24.64 58.08 24.64C39.68 24.64 25.76 39.68 25.76 58.08C25.76 76.48 39.68 91.52 58.08 91.52C70.24 91.52 80.48 85.12 86.24 75.68L105.6 91.52C94.88 106.4 77.76 116.16 58.08 116.16Z" fill="#0000FF"/>
</svg>
