<svg width="160" height="160" viewBox="0 0 160 160" fill="none" xmlns="http://www.w3.org/2000/svg">
<rect width="160" height="160" rx="24" fill="#FED8EF"/>
<g filter="url(#filter0_bd_89_1730)">
<rect x="17.5295" y="60" width="123.471" height="40" rx="20" fill="#270A2F" shape-rendering="crispEdges"/>
<path d="M120.861 76.2688V77.6609H116.471V76.2688H120.861ZM117.555 74.4393H119.354V81.6083C119.354 81.8503 119.391 82.0359 119.464 82.1651C119.54 82.2911 119.639 82.3772 119.762 82.4236C119.885 82.47 120.021 82.4932 120.17 82.4932C120.282 82.4932 120.385 82.485 120.478 82.4684C120.574 82.4518 120.647 82.4369 120.697 82.4236L121 83.8306C120.904 83.8637 120.766 83.9002 120.587 83.94C120.412 83.9798 120.196 84.003 119.941 84.0096C119.49 84.0228 119.084 83.9549 118.723 83.8057C118.362 83.6533 118.075 83.418 117.863 83.0998C117.654 82.7816 117.551 82.3839 117.555 81.9066V74.4393Z" fill="#FED8EF"/>
<path d="M112.298 84.0544C111.536 84.0544 110.882 83.887 110.335 83.5522C109.791 83.2175 109.372 82.7551 109.077 82.1652C108.785 81.5719 108.639 80.8891 108.639 80.1169C108.639 79.3413 108.789 78.6569 109.087 78.0636C109.385 77.467 109.806 77.003 110.35 76.6716C110.896 76.3368 111.543 76.1694 112.289 76.1694C112.908 76.1694 113.457 76.2838 113.934 76.5125C114.415 76.7379 114.798 77.0577 115.083 77.472C115.368 77.883 115.53 78.3636 115.57 78.9138H113.85C113.78 78.5459 113.614 78.2393 113.352 77.994C113.094 77.7454 112.748 77.6211 112.313 77.6211C111.946 77.6211 111.622 77.7206 111.344 77.9194C111.066 78.115 110.848 78.3967 110.693 78.7646C110.54 79.1325 110.464 79.5733 110.464 80.087C110.464 80.6074 110.54 81.0549 110.693 81.4294C110.845 81.8006 111.059 82.0873 111.334 82.2895C111.612 82.4883 111.939 82.5878 112.313 82.5878C112.579 82.5878 112.816 82.538 113.024 82.4386C113.236 82.3359 113.414 82.1884 113.556 81.9961C113.699 81.8039 113.797 81.5702 113.85 81.2951H115.57C115.527 81.8354 115.368 82.3143 115.093 82.7319C114.817 83.1462 114.443 83.471 113.969 83.7064C113.495 83.9384 112.938 84.0544 112.298 84.0544Z" fill="#FED8EF"/>
<path d="M104.049 84.0544C103.284 84.0544 102.623 83.8953 102.066 83.5771C101.512 83.2556 101.086 82.8015 100.788 82.2149C100.49 81.6249 100.341 80.9306 100.341 80.1318C100.341 79.3463 100.49 78.6569 100.788 78.0636C101.09 77.467 101.511 77.003 102.051 76.6716C102.591 76.3368 103.226 76.1694 103.955 76.1694C104.426 76.1694 104.87 76.2457 105.287 76.3981C105.708 76.5473 106.079 76.7793 106.401 77.0941C106.726 77.409 106.981 77.8101 107.167 78.2973C107.352 78.7812 107.445 79.3579 107.445 80.0274V80.5792H101.186V79.3662H105.72C105.717 79.0215 105.642 78.7149 105.496 78.4464C105.35 78.1746 105.146 77.9609 104.885 77.8051C104.626 77.6493 104.324 77.5714 103.98 77.5714C103.612 77.5714 103.289 77.6609 103.01 77.8399C102.732 78.0156 102.515 78.2476 102.359 78.5359C102.207 78.8209 102.129 79.1342 102.125 79.4755V80.5345C102.125 80.9786 102.207 81.3598 102.369 81.678C102.531 81.9928 102.758 82.2348 103.05 82.4038C103.342 82.5695 103.683 82.6524 104.074 82.6524C104.336 82.6524 104.573 82.6159 104.785 82.543C104.997 82.4668 105.181 82.3558 105.337 82.2099C105.493 82.0641 105.61 81.8834 105.69 81.668L107.37 81.8569C107.264 82.3011 107.062 82.6888 106.764 83.0203C106.469 83.3484 106.091 83.6036 105.63 83.7859C105.17 83.9649 104.643 84.0544 104.049 84.0544Z" fill="#FED8EF"/>
<path d="M97.0183 76.2688H98.818V84.3427C98.818 84.8929 98.7136 85.347 98.5048 85.7049C98.296 86.0629 97.9944 86.3297 97.6 86.5053C97.2056 86.681 96.7266 86.7688 96.1632 86.7688C96.0969 86.7688 96.0356 86.7672 95.9792 86.7639C95.9229 86.7639 95.8616 86.7622 95.7953 86.7589V85.2923C95.845 85.2956 95.8897 85.2973 95.9295 85.2973C95.9693 85.3006 96.0107 85.3022 96.0538 85.3022C96.3985 85.3022 96.6454 85.2177 96.7946 85.0487C96.9437 84.883 97.0183 84.6393 97.0183 84.3179V76.2688ZM97.9132 75.185C97.6248 75.185 97.3779 75.0906 97.1724 74.9017C96.9702 74.7094 96.8692 74.4791 96.8692 74.2106C96.8692 73.9388 96.9702 73.7085 97.1724 73.5196C97.3779 73.3273 97.6248 73.2312 97.9132 73.2312C98.1982 73.2312 98.4418 73.3273 98.644 73.5196C98.8495 73.7085 98.9522 73.9388 98.9522 74.2106C98.9522 74.4791 98.8495 74.7094 98.644 74.9017C98.4418 75.0906 98.1982 75.185 97.9132 75.185Z" fill="#FED8EF"/>
<path d="M91.8317 84.0544C91.0859 84.0544 90.4396 83.8903 89.8928 83.5622C89.3459 83.2341 88.9216 82.775 88.62 82.1851C88.3217 81.5951 88.1726 80.9057 88.1726 80.1169C88.1726 79.3281 88.3217 78.637 88.62 78.0437C88.9216 77.4504 89.3459 76.9897 89.8928 76.6616C90.4396 76.3335 91.0859 76.1694 91.8317 76.1694C92.5774 76.1694 93.2237 76.3335 93.7706 76.6616C94.3175 76.9897 94.7401 77.4504 95.0384 78.0437C95.34 78.637 95.4908 79.3281 95.4908 80.1169C95.4908 80.9057 95.34 81.5951 95.0384 82.1851C94.7401 82.775 94.3175 83.2341 93.7706 83.5622C93.2237 83.8903 92.5774 84.0544 91.8317 84.0544ZM91.8416 82.6126C92.246 82.6126 92.5841 82.5016 92.8558 82.2795C93.1276 82.0541 93.3298 81.7525 93.4624 81.3747C93.5983 80.9968 93.6662 80.5759 93.6662 80.1119C93.6662 79.6446 93.5983 79.222 93.4624 78.8441C93.3298 78.463 93.1276 78.1597 92.8558 77.9343C92.5841 77.709 92.246 77.5963 91.8416 77.5963C91.4273 77.5963 91.0826 77.709 90.8075 77.9343C90.5358 78.1597 90.3319 78.463 90.196 78.8441C90.0635 79.222 89.9972 79.6446 89.9972 80.1119C89.9972 80.5759 90.0635 80.9968 90.196 81.3747C90.3319 81.7525 90.5358 82.0541 90.8075 82.2795C91.0826 82.5016 91.4273 82.6126 91.8416 82.6126Z" fill="#FED8EF"/>
<path d="M83.2644 83.9052V76.2689H85.0094V77.5416H85.089C85.2282 77.1008 85.4668 76.761 85.8049 76.5224C86.1463 76.2805 86.5357 76.1595 86.9732 76.1595C87.0726 76.1595 87.1837 76.1645 87.3063 76.1744C87.4322 76.181 87.5366 76.1926 87.6195 76.2092V77.8647C87.5433 77.8382 87.4223 77.815 87.2566 77.7951C87.0942 77.7719 86.9367 77.7603 86.7843 77.7603C86.4562 77.7603 86.1612 77.8316 85.8993 77.9741C85.6408 78.1133 85.437 78.3072 85.2878 78.5558C85.1387 78.8044 85.0641 79.0911 85.0641 79.4159V83.9052H83.2644Z" fill="#FED8EF"/>
<path d="M74.5144 86.7689V76.2689H76.2843V77.5316H76.3887C76.4815 77.346 76.6124 77.1488 76.7814 76.94C76.9505 76.7279 77.1792 76.5473 77.4675 76.3981C77.7559 76.2457 78.1238 76.1694 78.5712 76.1694C79.1612 76.1694 79.6931 76.3202 80.1671 76.6218C80.6444 76.9201 81.0222 77.3626 81.3006 77.9493C81.5823 78.5326 81.7232 79.2485 81.7232 80.097C81.7232 80.9355 81.5856 81.6481 81.3106 82.2348C81.0355 82.8214 80.6609 83.2689 80.187 83.5771C79.713 83.8853 79.1761 84.0395 78.5762 84.0395C78.1387 84.0395 77.7758 83.9665 77.4874 83.8207C77.199 83.6749 76.967 83.4992 76.7914 83.2937C76.619 83.0849 76.4848 82.8877 76.3887 82.7021H76.3141V86.7689H74.5144ZM76.2793 80.087C76.2793 80.5809 76.3489 81.0134 76.4881 81.3846C76.6306 81.7558 76.8345 82.0459 77.0996 82.2547C77.3681 82.4602 77.6929 82.5629 78.074 82.5629C78.4718 82.5629 78.8049 82.4568 79.0733 82.2447C79.3418 82.0293 79.544 81.736 79.6799 81.3647C79.8191 80.9902 79.8887 80.5643 79.8887 80.087C79.8887 79.6131 79.8207 79.1922 79.6848 78.8243C79.549 78.4564 79.3468 78.168 79.0783 77.9592C78.8098 77.7504 78.4751 77.646 78.074 77.646C77.6896 77.646 77.3631 77.7471 77.0946 77.9493C76.8262 78.1514 76.6223 78.4348 76.4831 78.7994C76.3472 79.164 76.2793 79.5932 76.2793 80.087Z" fill="#FED8EF"/>
<path d="M65.0572 84.0394C64.4573 84.0394 63.9203 83.8853 63.4464 83.5771C62.9724 83.2688 62.5979 82.8214 62.3228 82.2348C62.0477 81.6481 61.9102 80.9355 61.9102 80.097C61.9102 79.2485 62.0494 78.5326 62.3278 77.9492C62.6095 77.3626 62.989 76.9201 63.4663 76.6218C63.9435 76.3202 64.4755 76.1694 65.0621 76.1694C65.5096 76.1694 65.8775 76.2456 66.1658 76.3981C66.4542 76.5473 66.6829 76.7279 66.8519 76.94C67.021 77.1488 67.1519 77.346 67.2447 77.5316H67.3192V73.7234H69.1239V83.9052H67.354V82.7021H67.2447C67.1519 82.8877 67.0176 83.0849 66.842 83.2937C66.6663 83.4992 66.4343 83.6749 66.146 83.8207C65.8576 83.9665 65.4947 84.0394 65.0572 84.0394ZM65.5593 82.5629C65.9405 82.5629 66.2653 82.4601 66.5337 82.2546C66.8022 82.0458 67.006 81.7558 67.1452 81.3846C67.2844 81.0134 67.354 80.5809 67.354 80.087C67.354 79.5932 67.2844 79.164 67.1452 78.7994C67.0094 78.4348 66.8072 78.1514 66.5387 77.9492C66.2736 77.7471 65.9471 77.646 65.5593 77.646C65.1583 77.646 64.8235 77.7504 64.555 77.9592C64.2866 78.168 64.0844 78.4563 63.9485 78.8242C63.8126 79.1921 63.7447 79.6131 63.7447 80.087C63.7447 80.5643 63.8126 80.9902 63.9485 81.3647C64.0877 81.7359 64.2915 82.0293 64.56 82.2447C64.8318 82.4568 65.1649 82.5629 65.5593 82.5629Z" fill="#FED8EF"/>
<path d="M55.4918 79.4308V83.9052H53.6921V76.2689H55.4123V77.5665H55.5018C55.6774 77.1389 55.9575 76.7992 56.342 76.5473C56.7298 76.2954 57.2087 76.1694 57.7788 76.1694C58.3057 76.1694 58.7648 76.2821 59.1559 76.5075C59.5503 76.7329 59.8552 77.0593 60.0707 77.4869C60.2894 77.9145 60.3971 78.4332 60.3938 79.043V83.9052H58.5941V79.3214C58.5941 78.811 58.4615 78.4116 58.1964 78.1233C57.9345 77.8349 57.5716 77.6907 57.1076 77.6907C56.7927 77.6907 56.5127 77.7603 56.2674 77.8995C56.0254 78.0354 55.8349 78.2326 55.6957 78.4912C55.5598 78.7497 55.4918 79.0629 55.4918 79.4308Z" fill="#FED8EF"/>
<path d="M50.0417 80.6936V76.2689H51.8415V83.9052H50.0964V82.548H50.0169C49.8445 82.9755 49.5612 83.3252 49.1667 83.597C48.7756 83.8688 48.2934 84.0047 47.72 84.0047C47.2195 84.0047 46.7771 83.8936 46.3926 83.6716C46.0114 83.4462 45.7131 83.1197 45.4977 82.6922C45.2823 82.2613 45.1746 81.7409 45.1746 81.1311V76.2689H46.9743V80.8527C46.9743 81.3366 47.1069 81.721 47.372 82.0061C47.6372 82.2911 47.9852 82.4336 48.416 82.4336C48.6812 82.4336 48.9381 82.369 49.1866 82.2397C49.4352 82.1105 49.639 81.9182 49.7981 81.663C49.9605 81.4045 50.0417 81.0814 50.0417 80.6936Z" fill="#FED8EF"/>
<path d="M37.5295 83.9052V73.7234H44.0522V75.2696H39.3739V78.0338H43.6048V79.5799H39.3739V83.9052H37.5295Z" fill="#FED8EF"/>
</g>
<defs>
<filter id="filter0_bd_89_1730" x="1.52948" y="44" width="155.471" height="72" filterUnits="userSpaceOnUse" color-interpolation-filters="sRGB">
<feFlood flood-opacity="0" result="BackgroundImageFix"/>
<feGaussianBlur in="BackgroundImageFix" stdDeviation="8"/>
<feComposite in2="SourceAlpha" operator="in" result="effect1_backgroundBlur_89_1730"/>
<feColorMatrix in="SourceAlpha" type="matrix" values="0 0 0 0 0 0 0 0 0 0 0 0 0 0 0 0 0 0 127 0" result="hardAlpha"/>
<feOffset/>
<feGaussianBlur stdDeviation="8"/>
<feComposite in2="hardAlpha" operator="out"/>
<feColorMatrix type="matrix" values="0 0 0 0 0 0 0 0 0 0 0 0 0 0 0 0 0 0 0.1 0"/>
<feBlend mode="normal" in2="effect1_backgroundBlur_89_1730" result="effect2_dropShadow_89_1730"/>
<feBlend mode="normal" in="SourceGraphic" in2="effect2_dropShadow_89_1730" result="shape"/>
</filter>
</defs>
</svg>
