<svg width="100%" height="100%" viewBox="0 0 923 117" preserveAspectRatio="xMinYMid meet" fill="none" xmlns="http://www.w3.org/2000/svg">
<path d="M876.176 116.28C844.176 116.28 818.096 90.2 818.096 58.2C818.096 26.2 844.176 0.119995 876.176 0.119995C895.856 0.119995 911.056 7.96 922.096 21.56L902.736 37.4C895.856 28.6 888.336 24.76 876.176 24.76C857.776 24.76 843.856 39.8 843.856 58.2C843.856 76.6 857.776 91.64 876.176 91.64C885.616 91.64 892.496 90.04 898.096 86.04V70.2H870.736L881.616 46.2H922.896V97.72C911.536 110.52 895.536 116.28 876.176 116.28Z" fill="#0000FF"/>
<path d="M801.906 116.28L730.226 55.64V115H704.626V0.119995L776.306 60.76V1.4H801.906V116.28Z" fill="#0000FF"/>
<path d="M657.595 115V1.40002H683.195V115H657.595Z" fill="#0000FF"/>
<path d="M618.715 115L583.515 68.92H583.195V115H557.595V1.40002H600.475C619.035 1.40002 634.235 16.6 634.235 35.16C634.235 49.4 625.595 61.72 612.315 66.84L649.275 115H618.715ZM583.195 47.32H597.595C604.475 47.32 609.435 42.36 609.435 36.12C609.435 29.88 604.475 24.76 597.595 24.76H583.195V47.32Z" fill="#0000FF"/>
<path d="M470.095 115V1.40002H540.495V26.68H495.695V45.88H530.895V70.52H495.695V89.72H540.495V115H470.095Z" fill="#0000FF"/>
<path d="M382.595 115V1.40002H452.995V26.68H408.195V45.88H443.395V70.52H408.195V89.72H452.995V115H382.595Z" fill="#0000FF"/>
<path d="M361.125 116.28L289.445 55.64V115H263.845V0.119995L335.525 60.76V1.4H361.125V116.28Z" fill="#0000FF"/>
<path d="M189.614 91.64C208.014 91.64 221.934 76.6 221.934 58.2C221.934 39.8 208.014 24.76 189.614 24.76C171.214 24.76 157.294 39.8 157.294 58.2C157.294 76.6 171.214 91.64 189.614 91.64ZM189.614 116.28C157.614 116.28 131.534 90.2 131.534 58.2C131.534 26.2 157.614 0.119995 189.614 0.119995C221.614 0.119995 247.694 26.2 247.694 58.2C247.694 90.2 221.614 116.28 189.614 116.28Z" fill="#0000FF"/>
<path d="M89.7825 115V1.40002H115.382V115H89.7825Z" fill="#0000FF"/>
<path d="M0.719971 115V1.40002H38.16C60.4 1.40002 77.04 18.68 77.04 39.96C77.04 61.24 60.4 78.52 38.16 78.52H26.32V115H0.719971ZM26.32 54.68H37.84C46 54.68 52.24 47.64 52.24 39.96C52.24 32.28 46.16 25.4 37.84 25.4H26.32V54.68Z" fill="#0000FF"/>
</svg>