<svg width="160" height="160" viewBox="0 0 160 160" fill="none" xmlns="http://www.w3.org/2000/svg">
<rect width="160" height="160" rx="24" fill="#E2FF62"/>
<path d="M132.264 128V118.592H113.016L136.344 93.536V114.752H140.808V118.592H136.344V128H132.264ZM121.416 114.752H132.264V103.088L121.416 114.752Z" fill="#3A341C"/>
<path d="M108.623 128.384C106.703 128.384 105.071 126.8 105.071 124.832C105.071 122.864 106.703 121.28 108.623 121.28C110.591 121.28 112.175 122.864 112.175 124.832C112.175 126.8 110.591 128.384 108.623 128.384Z" fill="#3A341C"/>
<path d="M88.7711 128.384C84.7391 128.384 80.9471 126.368 78.9791 123.152L82.1471 120.704C83.2991 122.864 85.6991 124.592 88.7231 124.592C92.9471 124.592 96.1151 121.664 96.1151 117.2C96.1151 112.832 93.1391 109.616 88.4831 109.616H85.4591L92.3231 97.76H80.3711V93.92H98.7071L91.5551 106.304C97.0751 107.456 100.339 111.92 100.339 117.2C100.339 123.488 95.6831 128.384 88.7711 128.384Z" fill="#3A341C"/>
<path d="M53.5672 128L66.7672 113.648C66.1912 113.792 65.7592 113.792 65.1832 113.792C59.3752 113.648 55.2952 109.136 55.2952 103.76C55.2952 98 59.8072 93.536 65.6152 93.536C71.4232 93.536 75.9832 98 75.9832 103.76C75.9832 107.84 74.2072 110.912 70.0792 115.424L62.2072 124.16H75.9832V128H53.5672ZM65.6152 110.192C69.2632 110.192 71.9032 107.456 71.9032 103.76C71.9032 100.16 69.2632 97.328 65.6152 97.328C61.9192 97.328 59.3752 100.16 59.3752 103.76C59.3752 107.456 61.9192 110.192 65.6152 110.192Z" fill="#3A341C"/>
<path d="M25.9908 132.224V128.288C21.7668 127.856 18.4068 125.744 16.6308 123.104L19.6548 120.56C21.2388 122.72 24.0708 124.592 27.5268 124.592C31.7028 124.592 34.1508 122.432 34.1508 119.408C34.1508 116.336 31.9428 114.944 28.3908 113.168L25.2708 111.632C20.1348 109.136 17.9748 106.352 17.9748 102.08C17.9748 97.568 21.6228 94.304 25.9908 93.68V89.696H29.5428V93.632C32.7588 94.064 35.2548 95.552 37.2228 97.904L34.3908 100.544C32.6628 98.48 30.6948 97.328 27.7668 97.328C24.4548 97.328 22.0068 99.344 22.0068 102.032C22.0068 104.672 23.6388 106.112 27.2388 107.84L30.3588 109.376C34.8708 111.584 38.2788 114.176 38.2788 118.928C38.2788 123.872 35.0148 127.616 29.5428 128.24V132.224H25.9908Z" fill="#3A341C"/>
<path d="M100.667 38.1492C99.9011 38.1492 99.2398 37.9901 98.683 37.6719C98.1295 37.3504 97.7036 36.8963 97.4053 36.3097C97.107 35.7197 96.9579 35.0253 96.9579 34.2266C96.9579 33.4411 97.107 32.7517 97.4053 32.1584C97.7069 31.5618 98.1279 31.0978 98.6681 30.7664C99.2084 30.4316 99.8431 30.2642 100.572 30.2642C101.043 30.2642 101.487 30.3405 101.905 30.4929C102.326 30.6421 102.697 30.8741 103.018 31.1889C103.343 31.5038 103.598 31.9048 103.784 32.3921C103.969 32.876 104.062 33.4527 104.062 34.1222V34.674H97.8031V33.461H102.337C102.334 33.1163 102.259 32.8097 102.113 32.5412C101.968 32.2694 101.764 32.0557 101.502 31.8999C101.243 31.7441 100.942 31.6662 100.597 31.6662C100.229 31.6662 99.906 31.7557 99.6276 31.9347C99.3492 32.1103 99.1321 32.3423 98.9764 32.6307C98.8239 32.9157 98.746 33.2289 98.7427 33.5703V34.6293C98.7427 35.0734 98.8239 35.4546 98.9863 35.7727C99.1487 36.0876 99.3757 36.3296 99.6674 36.4986C99.9591 36.6643 100.3 36.7472 100.692 36.7472C100.953 36.7472 101.19 36.7107 101.402 36.6378C101.615 36.5616 101.799 36.4505 101.954 36.3047C102.11 36.1589 102.228 35.9782 102.307 35.7628L103.988 35.9517C103.882 36.3958 103.679 36.7836 103.381 37.1151C103.086 37.4432 102.708 37.6984 102.248 37.8807C101.787 38.0597 101.26 38.1492 100.667 38.1492Z" fill="#3A341C"/>
<path d="M92.5369 38.1492C91.7746 38.1492 91.12 37.9818 90.5731 37.647C90.0296 37.3123 89.6103 36.8499 89.3153 36.26C89.0236 35.6667 88.8778 34.9839 88.8778 34.2117C88.8778 33.4361 89.027 32.7517 89.3253 32.1584C89.6236 31.5618 90.0445 31.0978 90.588 30.7664C91.1349 30.4316 91.7812 30.2642 92.527 30.2642C93.1467 30.2642 93.6953 30.3786 94.1726 30.6073C94.6531 30.8326 95.036 31.1525 95.321 31.5668C95.606 31.9778 95.7684 32.4584 95.8082 33.0085H94.088C94.0184 32.6406 93.8527 32.3341 93.5909 32.0888C93.3324 31.8402 92.986 31.7159 92.5518 31.7159C92.1839 31.7159 91.8608 31.8154 91.5824 32.0142C91.304 32.2098 91.0869 32.4915 90.9311 32.8594C90.7786 33.2273 90.7024 33.6681 90.7024 34.1818C90.7024 34.7022 90.7786 35.1496 90.9311 35.5242C91.0835 35.8954 91.2973 36.1821 91.5724 36.3842C91.8508 36.5831 92.1773 36.6825 92.5518 36.6825C92.817 36.6825 93.0539 36.6328 93.2628 36.5334C93.4749 36.4307 93.6522 36.2832 93.7947 36.0909C93.9372 35.8987 94.035 35.665 94.088 35.3899H95.8082C95.7651 35.9302 95.606 36.4091 95.3309 36.8267C95.0558 37.241 94.6813 37.5658 94.2074 37.8012C93.7334 38.0332 93.1766 38.1492 92.5369 38.1492Z" fill="#3A341C"/>
<path d="M85.5556 38V30.3636H87.3553V38H85.5556ZM86.4604 29.2798C86.1754 29.2798 85.9301 29.1854 85.7246 28.9964C85.5191 28.8042 85.4164 28.5739 85.4164 28.3054C85.4164 28.0336 85.5191 27.8033 85.7246 27.6143C85.9301 27.4221 86.1754 27.326 86.4604 27.326C86.7488 27.326 86.994 27.4221 87.1962 27.6143C87.4017 27.8033 87.5044 28.0336 87.5044 28.3054C87.5044 28.5739 87.4017 28.8042 87.1962 28.9964C86.994 29.1854 86.7488 29.2798 86.4604 29.2798Z" fill="#3A341C"/>
<path d="M80.0048 38V30.3636H81.7498V31.6364H81.8293C81.9685 31.1956 82.2072 30.8558 82.5452 30.6172C82.8866 30.3752 83.2761 30.2543 83.7136 30.2543C83.813 30.2543 83.924 30.2592 84.0467 30.2692C84.1726 30.2758 84.277 30.2874 84.3599 30.304V31.9595C84.2836 31.933 84.1627 31.9098 83.9969 31.8899C83.8345 31.8667 83.6771 31.8551 83.5247 31.8551C83.1965 31.8551 82.9015 31.9264 82.6397 32.0689C82.3812 32.2081 82.1773 32.402 82.0282 32.6506C81.8791 32.8992 81.8045 33.1859 81.8045 33.5107V38H80.0048Z" fill="#3A341C"/>
<path d="M71.2548 40.8637V30.3637H73.0247V31.6264H73.1291C73.2219 31.4408 73.3528 31.2436 73.5218 31.0348C73.6909 30.8227 73.9196 30.6421 74.2079 30.4929C74.4963 30.3405 74.8642 30.2642 75.3116 30.2642C75.9016 30.2642 76.4335 30.415 76.9075 30.7166C77.3848 31.0149 77.7626 31.4574 78.041 32.0441C78.3227 32.6274 78.4636 33.3433 78.4636 34.1918C78.4636 35.0303 78.3261 35.7429 78.051 36.3296C77.7759 36.9162 77.4013 37.3637 76.9274 37.6719C76.4534 37.9801 75.9165 38.1342 75.3166 38.1342C74.8791 38.1342 74.5162 38.0613 74.2278 37.9155C73.9395 37.7697 73.7074 37.594 73.5318 37.3885C73.3594 37.1797 73.2252 36.9825 73.1291 36.7969H73.0545V40.8637H71.2548ZM73.0197 34.1818C73.0197 34.6757 73.0893 35.1082 73.2285 35.4794C73.371 35.8506 73.5749 36.1406 73.84 36.3494C74.1085 36.5549 74.4333 36.6577 74.8144 36.6577C75.2122 36.6577 75.5453 36.5516 75.8137 36.3395C76.0822 36.1241 76.2844 35.8307 76.4203 35.4595C76.5595 35.085 76.6291 34.6591 76.6291 34.1818C76.6291 33.7079 76.5611 33.2869 76.4252 32.9191C76.2894 32.5512 76.0872 32.2628 75.8187 32.054C75.5502 31.8452 75.2155 31.7408 74.8144 31.7408C74.43 31.7408 74.1035 31.8419 73.835 32.0441C73.5666 32.2462 73.3627 32.5296 73.2235 32.8942C73.0877 33.2588 73.0197 33.688 73.0197 34.1818Z" fill="#3A341C"/>
<path d="M66.277 30.3636V31.7556H61.8871V30.3636H66.277ZM62.9709 28.5341H64.7706V35.7031C64.7706 35.945 64.807 36.1306 64.88 36.2599C64.9562 36.3859 65.0556 36.472 65.1782 36.5184C65.3009 36.5648 65.4368 36.588 65.5859 36.588C65.6986 36.588 65.8014 36.5797 65.8942 36.5632C65.9903 36.5466 66.0632 36.5317 66.1129 36.5184L66.4162 37.9254C66.3201 37.9585 66.1825 37.995 66.0035 38.0348C65.8279 38.0745 65.6124 38.0977 65.3572 38.1044C64.9065 38.1176 64.5005 38.0497 64.1392 37.9005C63.7779 37.7481 63.4912 37.5128 63.2791 37.1946C63.0703 36.8764 62.9675 36.4787 62.9709 36.0014V28.5341Z" fill="#3A341C"/>
<path d="M55.7322 33.5256V38H53.9325V30.3637H55.6527V31.6612H55.7422C55.9178 31.2337 56.1979 30.894 56.5824 30.6421C56.9702 30.3902 57.4491 30.2642 58.0192 30.2642C58.5462 30.2642 59.0052 30.3769 59.3963 30.6023C59.7907 30.8277 60.0956 31.1541 60.3111 31.5817C60.5298 32.0092 60.6375 32.528 60.6342 33.1378V38H58.8345V33.4162C58.8345 32.9058 58.7019 32.5064 58.4368 32.2181C58.1749 31.9297 57.812 31.7855 57.348 31.7855C57.0331 31.7855 56.7531 31.8551 56.5078 31.9943C56.2659 32.1302 56.0753 32.3274 55.9361 32.586C55.8002 32.8445 55.7322 33.1577 55.7322 33.5256Z" fill="#3A341C"/>
<path d="M49.0144 38.1492C48.2488 38.1492 47.5875 37.9901 47.0307 37.6719C46.4772 37.3504 46.0513 36.8963 45.753 36.3097C45.4547 35.7197 45.3056 35.0253 45.3056 34.2266C45.3056 33.4411 45.4547 32.7517 45.753 32.1584C46.0546 31.5618 46.4756 31.0978 47.0158 30.7664C47.556 30.4316 48.1908 30.2642 48.9199 30.2642C49.3906 30.2642 49.8347 30.3405 50.2523 30.4929C50.6732 30.6421 51.0444 30.8741 51.3659 31.1889C51.6908 31.5038 51.946 31.9048 52.1316 32.3921C52.3172 32.876 52.41 33.4527 52.41 34.1222V34.674H46.1507V33.461H50.6848C50.6815 33.1163 50.6069 32.8097 50.4611 32.5412C50.3153 32.2694 50.1114 32.0557 49.8496 31.8999C49.5911 31.7441 49.2895 31.6662 48.9448 31.6662C48.5769 31.6662 48.2537 31.7557 47.9753 31.9347C47.6969 32.1103 47.4798 32.3423 47.324 32.6307C47.1716 32.9157 47.0937 33.2289 47.0904 33.5703V34.6293C47.0904 35.0734 47.1716 35.4546 47.334 35.7727C47.4964 36.0876 47.7234 36.3296 48.0151 36.4986C48.3068 36.6643 48.6481 36.7472 49.0392 36.7472C49.3011 36.7472 49.5381 36.7107 49.7502 36.6378C49.9623 36.5616 50.1462 36.4505 50.302 36.3047C50.4578 36.1589 50.5755 35.9782 50.655 35.7628L52.3354 35.9517C52.2293 36.3958 52.0272 36.7836 51.7289 37.1151C51.4339 37.4432 51.056 37.6984 50.5953 37.8807C50.1346 38.0597 49.6077 38.1492 49.0144 38.1492Z" fill="#3A341C"/>
<path d="M40.3974 38V30.3636H42.1424V31.6364H42.2219C42.3611 31.1956 42.5998 30.8558 42.9379 30.6172C43.2792 30.3752 43.6687 30.2543 44.1062 30.2543C44.2056 30.2543 44.3166 30.2592 44.4393 30.2692C44.5652 30.2758 44.6696 30.2874 44.7525 30.304V31.9595C44.6763 31.933 44.5553 31.9098 44.3896 31.8899C44.2272 31.8667 44.0697 31.8551 43.9173 31.8551C43.5891 31.8551 43.2942 31.9264 43.0323 32.0689C42.7738 32.2081 42.57 32.402 42.4208 32.6506C42.2717 32.8992 42.1971 33.1859 42.1971 33.5107V38H40.3974Z" fill="#3A341C"/>
<path d="M34.8466 38V30.3636H36.5916V31.6364H36.6712C36.8104 31.1956 37.049 30.8558 37.3871 30.6172C37.7285 30.3752 38.1179 30.2543 38.5554 30.2543C38.6548 30.2543 38.7659 30.2592 38.8885 30.2692C39.0144 30.2758 39.1188 30.2874 39.2017 30.304V31.9595C39.1255 31.933 39.0045 31.9098 38.8388 31.8899C38.6764 31.8667 38.5189 31.8551 38.3665 31.8551C38.0384 31.8551 37.7434 31.9264 37.4815 32.0689C37.223 32.2081 37.0192 32.402 36.87 32.6506C36.7209 32.8992 36.6463 33.1859 36.6463 33.5107V38H34.8466Z" fill="#3A341C"/>
<path d="M31.1962 34.7884V30.3636H32.9959V38H31.2509V36.6428H31.1713C30.999 37.0703 30.7156 37.42 30.3212 37.6918C29.9301 37.9636 29.4479 38.0994 28.8745 38.0994C28.374 38.0994 27.9315 37.9884 27.547 37.7663C27.1659 37.541 26.8676 37.2145 26.6522 36.7869C26.4367 36.3561 26.329 35.8357 26.329 35.2259V30.3636H28.1287V34.9475C28.1287 35.4314 28.2613 35.8158 28.5265 36.1009C28.7916 36.3859 29.1396 36.5284 29.5705 36.5284C29.8356 36.5284 30.0925 36.4638 30.3411 36.3345C30.5897 36.2053 30.7935 36.013 30.9526 35.7578C31.115 35.4993 31.1962 35.1761 31.1962 34.7884Z" fill="#3A341C"/>
<path d="M24.7194 31.2535H22.8601C22.807 30.9486 22.7093 30.6785 22.5668 30.4432C22.4242 30.2045 22.2469 30.0023 22.0348 29.8366C21.8227 29.6709 21.5807 29.5466 21.3089 29.4638C21.0405 29.3776 20.7505 29.3345 20.4389 29.3345C19.8854 29.3345 19.3949 29.4737 18.9673 29.7521C18.5398 30.0272 18.205 30.4316 17.9631 30.9652C17.7211 31.4955 17.6001 32.1434 17.6001 32.9091C17.6001 33.688 17.7211 34.3442 17.9631 34.8778C18.2083 35.4081 18.5431 35.8092 18.9673 36.0809C19.3949 36.3494 19.8837 36.4836 20.4339 36.4836C20.7389 36.4836 21.0239 36.4439 21.2891 36.3643C21.5575 36.2815 21.7978 36.1605 22.0099 36.0014C22.2254 35.8423 22.406 35.6468 22.5518 35.4148C22.701 35.1827 22.8037 34.9176 22.8601 34.6193L24.7194 34.6292C24.6498 35.1131 24.499 35.5672 24.267 35.9915C24.0383 36.4157 23.7384 36.7902 23.3672 37.115C22.996 37.4365 22.5618 37.6884 22.0646 37.8707C21.5675 38.0497 21.0156 38.1392 20.4091 38.1392C19.5142 38.1392 18.7154 37.932 18.0128 37.5177C17.3101 37.1034 16.7566 36.5052 16.3523 35.723C15.9479 34.9408 15.7457 34.0028 15.7457 32.9091C15.7457 31.812 15.9496 30.874 16.3572 30.0951C16.7649 29.313 17.3201 28.7147 18.0227 28.3004C18.7254 27.8861 19.5208 27.679 20.4091 27.679C20.9758 27.679 21.5028 27.7585 21.99 27.9176C22.4773 28.0767 22.9114 28.3103 23.2926 28.6186C23.6738 28.9235 23.987 29.298 24.2322 29.7422C24.4808 30.183 24.6432 30.6868 24.7194 31.2535Z" fill="#3A341C"/>
</svg>
