<svg width="112" height="20" viewBox="0 0 112 20" fill="none" xmlns="http://www.w3.org/2000/svg">
<path d="M102.739 19.7794V4.57283H98.0556V0.220215H111.857V4.57283H107.147V19.7794H102.739Z" fill="#0000FF"/>
<path d="M78.9692 19.7794L85.14 9.97228L79.3825 0.220215H84.4789L88.253 6.72159L92.0271 0.220215H97.1235L91.3659 9.97228L97.5367 19.7794H92.4128L88.253 13.0577L84.0932 19.7794H78.9692Z" fill="#0000FF"/>
<path d="M65.7496 19.7794V0.220215H77.8708V4.57283H70.1573V15.4268H77.8708V19.7794H65.7496ZM74.014 12.4792C72.6091 12.4792 71.5347 11.4048 71.5347 9.99983C71.5347 8.59487 72.6091 7.52049 74.014 7.52049C75.419 7.52049 76.4934 8.59487 76.4934 9.99983C76.4934 11.4048 75.419 12.4792 74.014 12.4792Z" fill="#0000FF"/>
<path d="M62.0534 20L49.7118 9.55923V19.7796H45.3041V0L57.6457 10.4408V0.220386H62.0534V20Z" fill="#0000FF"/>
<path d="M32.5229 12.4793C31.1179 12.4793 30.0435 11.405 30.0435 10C30.0435 8.59504 31.1179 7.52066 32.5229 7.52066C33.9278 7.52066 35.0022 8.59504 35.0022 10C35.0022 11.405 33.9278 12.4793 32.5229 12.4793ZM32.5229 15.7576C35.6909 15.7576 38.0876 13.168 38.0876 10C38.0876 6.83196 35.6909 4.24242 32.5229 4.24242C29.3548 4.24242 26.9581 6.83196 26.9581 10C26.9581 13.168 29.3548 15.7576 32.5229 15.7576ZM32.5229 20C27.0132 20 22.5229 15.5096 22.5229 10C22.5229 4.49036 27.0132 0 32.5229 0C38.0325 0 42.5229 4.49036 42.5229 10C42.5229 15.5096 38.0325 20 32.5229 20Z" fill="#0000FF"/>
<path d="M15.3347 19.7794V0.220215H19.7424V19.7794H15.3347Z" fill="#0000FF"/>
<path d="M0 19.7794V0.220215H6.44628C10.2755 0.220215 13.1405 3.19542 13.1405 6.85933C13.1405 10.5232 10.2755 13.4985 6.44628 13.4985H4.40771V19.7794H0ZM4.40771 9.39377H6.39119C7.79614 9.39377 8.87053 8.18165 8.87053 6.85933C8.87053 5.53702 7.82369 4.35245 6.39119 4.35245H4.40771V9.39377Z" fill="#0000FF"/>
</svg>
