<svg width="1450" height="260" viewBox="0 0 1450 260" fill="none" xmlns="http://www.w3.org/2000/svg">
<path d="M1331.68 257V59.936H1270.99V3.53003H1449.84V59.936H1388.8V257H1331.68Z" fill="white"/>
<path d="M1023.65 257L1103.61 129.908L1029 3.53003H1095.05L1143.95 87.782L1192.86 3.53003H1258.91L1184.3 129.908L1264.26 257H1197.86L1143.95 169.892L1090.05 257H1023.65Z" fill="white"/>
<path d="M852.33 257V3.53003H1009.41V59.936H909.45V200.594H1009.41V257H852.33ZM959.43 162.395C941.223 162.395 927.3 148.472 927.3 130.265C927.3 112.058 941.223 98.135 959.43 98.135C977.637 98.135 991.56 112.058 991.56 130.265C991.56 148.472 977.637 162.395 959.43 162.395Z" fill="white"/>
<path d="M804.425 259.856L644.489 124.553V257H587.369V0.674072L747.305 135.977V3.53008H804.425V259.856Z" fill="white"/>
<path d="M421.74 162.395C403.533 162.395 389.61 148.472 389.61 130.265C389.61 112.058 403.533 98.1351 421.74 98.1351C439.947 98.1351 453.87 112.058 453.87 130.265C453.87 148.472 439.947 162.395 421.74 162.395ZM421.74 204.878C462.795 204.878 493.854 171.32 493.854 130.265C493.854 89.2101 462.795 55.6521 421.74 55.6521C380.685 55.6521 349.626 89.2101 349.626 130.265C349.626 171.32 380.685 204.878 421.74 204.878ZM421.74 259.856C350.34 259.856 292.149 201.665 292.149 130.265C292.149 58.8651 350.34 0.674072 421.74 0.674072C493.14 0.674072 551.331 58.8651 551.331 130.265C551.331 201.665 493.14 259.856 421.74 259.856Z" fill="white"/>
<path d="M198.992 257V3.53003H256.112V257H198.992Z" fill="white"/>
<path d="M0.271484 257V3.53003H83.8095C133.432 3.53003 170.56 42.086 170.56 89.567C170.56 137.048 133.432 175.604 83.8095 175.604H57.3915V257H0.271484ZM57.3915 122.411H83.0955C101.302 122.411 115.226 106.703 115.226 89.567C115.226 72.431 101.659 57.08 83.0955 57.08H57.3915V122.411Z" fill="white"/>
</svg>
