<svg width="36" height="36" viewBox="0 0 36 36" fill="none" xmlns="http://www.w3.org/2000/svg">
<path d="M18.0558 22.2799C15.6078 22.2799 13.7358 20.4079 13.7358 17.9599C13.7358 15.5119 15.6078 13.6399 18.0558 13.6399C20.5038 13.6399 22.3758 15.5119 22.3758 17.9599C22.3758 20.4079 20.5038 22.2799 18.0558 22.2799ZM18.0558 27.9919C23.5758 27.9919 27.7518 23.4799 27.7518 17.9599C27.7518 12.4399 23.5758 7.92789 18.0558 7.92789C12.5358 7.92789 8.35984 12.4399 8.35984 17.9599C8.35984 23.4799 12.5358 27.9919 18.0558 27.9919ZM18.0558 35.3839C8.45584 35.3839 0.631836 27.5599 0.631836 17.9599C0.631836 8.35989 8.45584 0.535889 18.0558 0.535889C27.6558 0.535889 35.4798 8.35989 35.4798 17.9599C35.4798 27.5599 27.6558 35.3839 18.0558 35.3839Z" fill="white"/>
</svg>
