<svg width="72" height="72" viewBox="0 0 72 72" fill="none" xmlns="http://www.w3.org/2000/svg">
<rect width="72" height="72" rx="36" fill="#310707"/>
<path d="M57.75 35.25C57.7475 33.3257 57.1768 31.4449 56.1093 29.8438C55.0419 28.2426 53.5254 26.9924 51.75 26.25V25.5C51.7487 23.618 51.104 21.793 49.9228 20.3278C48.7416 18.8626 47.095 17.8454 45.2561 17.4447C43.4173 17.0441 41.4967 17.2843 39.8131 18.1253C38.1295 18.9664 36.784 20.3578 36 22.0687C35.216 20.3578 33.8705 18.9664 32.1869 18.1253C30.5033 17.2843 28.5827 17.0441 26.7439 17.4447C24.905 17.8454 23.2584 18.8626 22.0772 20.3278C20.896 21.793 20.2513 23.618 20.25 25.5V26.25C18.4732 26.9903 16.9552 28.2401 15.8875 29.8417C14.8198 31.4433 14.25 33.3251 14.25 35.25C14.25 37.1749 14.8198 39.0567 15.8875 40.6583C16.9552 42.2599 18.4732 43.5096 20.25 44.25V45C20.2513 46.882 20.896 48.707 22.0772 50.1722C23.2584 51.6373 24.905 52.6546 26.7439 53.0552C28.5827 53.4558 30.5033 53.2157 32.1869 52.3746C33.8705 51.5336 35.216 50.1422 36 48.4312C36.784 50.1422 38.1295 51.5336 39.8131 52.3746C41.4967 53.2157 43.4173 53.4558 45.2561 53.0552C47.095 52.6546 48.7416 51.6373 49.9228 50.1722C51.104 48.707 51.7487 46.882 51.75 45V44.25C53.5258 43.5082 55.0428 42.2581 56.1103 40.6569C57.1778 39.0556 57.7483 37.1745 57.75 35.25ZM28.5 51.75C26.7098 51.75 24.9929 51.0388 23.727 49.773C22.4612 48.5071 21.75 46.7902 21.75 45V44.7356C22.4872 44.9107 23.2423 44.9994 24 45H25.5C25.6989 45 25.8897 44.921 26.0303 44.7803C26.171 44.6397 26.25 44.4489 26.25 44.25C26.25 44.0511 26.171 43.8603 26.0303 43.7197C25.8897 43.579 25.6989 43.5 25.5 43.5H24C22.0523 43.5022 20.1666 42.8152 18.6767 41.5606C17.1868 40.3061 16.1888 38.5648 15.8595 36.6451C15.5301 34.7254 15.8905 32.7511 16.877 31.0717C17.8634 29.3922 19.4123 28.1159 21.2494 27.4687C21.3957 27.4172 21.5224 27.3215 21.6121 27.1949C21.7017 27.0683 21.7499 26.917 21.75 26.7619V25.5C21.75 23.7098 22.4612 21.9929 23.727 20.727C24.9929 19.4612 26.7098 18.75 28.5 18.75C30.2902 18.75 32.0071 19.4612 33.273 20.727C34.5388 21.9929 35.25 23.7098 35.25 25.5V40.2656C34.4898 39.1807 33.4795 38.2949 32.3046 37.6829C31.1297 37.071 29.8247 36.751 28.5 36.75C28.3011 36.75 28.1103 36.829 27.9697 36.9697C27.829 37.1103 27.75 37.3011 27.75 37.5C27.75 37.6989 27.829 37.8897 27.9697 38.0303C28.1103 38.171 28.3011 38.25 28.5 38.25C30.2902 38.25 32.0071 38.9612 33.273 40.227C34.5388 41.4929 35.25 43.2098 35.25 45C35.25 46.7902 34.5388 48.5071 33.273 49.773C32.0071 51.0388 30.2902 51.75 28.5 51.75ZM48 43.5H46.5C46.3011 43.5 46.1103 43.579 45.9697 43.7197C45.829 43.8603 45.75 44.0511 45.75 44.25C45.75 44.4489 45.829 44.6397 45.9697 44.7803C46.1103 44.921 46.3011 45 46.5 45H48C48.7577 44.9994 49.5128 44.9107 50.25 44.7356V45C50.25 46.335 49.8541 47.6401 49.1124 48.7501C48.3707 49.8601 47.3165 50.7253 46.0831 51.2362C44.8497 51.7471 43.4925 51.8807 42.1831 51.6203C40.8738 51.3598 39.671 50.717 38.727 49.773C37.783 48.829 37.1401 47.6262 36.8797 46.3169C36.6192 45.0075 36.7529 43.6503 37.2638 42.4169C37.7747 41.1835 38.6399 40.1293 39.7499 39.3876C40.8599 38.6459 42.165 38.25 43.5 38.25C43.6989 38.25 43.8897 38.171 44.0303 38.0303C44.171 37.8897 44.25 37.6989 44.25 37.5C44.25 37.3011 44.171 37.1103 44.0303 36.9697C43.8897 36.829 43.6989 36.75 43.5 36.75C42.1753 36.751 40.8703 37.071 39.6954 37.6829C38.5205 38.2949 37.5102 39.1807 36.75 40.2656V25.5C36.75 23.7098 37.4612 21.9929 38.727 20.727C39.9929 19.4612 41.7098 18.75 43.5 18.75C45.2902 18.75 47.0071 19.4612 48.273 20.727C49.5388 21.9929 50.25 23.7098 50.25 25.5V26.7619C50.2501 26.917 50.2983 27.0683 50.388 27.1949C50.4776 27.3215 50.6043 27.4172 50.7506 27.4687C52.5877 28.1159 54.1366 29.3922 55.123 31.0717C56.1095 32.7511 56.4699 34.7254 56.1405 36.6451C55.8112 38.5648 54.8132 40.3061 53.3233 41.5606C51.8334 42.8152 49.9477 43.5022 48 43.5ZM50.25 33C50.25 33.1989 50.171 33.3897 50.0303 33.5303C49.8897 33.671 49.6989 33.75 49.5 33.75H48.75C47.1587 33.75 45.6326 33.1179 44.5074 31.9926C43.3821 30.8674 42.75 29.3413 42.75 27.75V27C42.75 26.8011 42.829 26.6103 42.9697 26.4697C43.1103 26.329 43.3011 26.25 43.5 26.25C43.6989 26.25 43.8897 26.329 44.0303 26.4697C44.171 26.6103 44.25 26.8011 44.25 27V27.75C44.25 28.9435 44.7241 30.0881 45.568 30.932C46.4119 31.7759 47.5565 32.25 48.75 32.25H49.5C49.6989 32.25 49.8897 32.329 50.0303 32.4697C50.171 32.6103 50.25 32.8011 50.25 33ZM29.25 27.75C29.25 29.3413 28.6179 30.8674 27.4926 31.9926C26.3674 33.1179 24.8413 33.75 23.25 33.75H22.5C22.3011 33.75 22.1103 33.671 21.9697 33.5303C21.829 33.3897 21.75 33.1989 21.75 33C21.75 32.8011 21.829 32.6103 21.9697 32.4697C22.1103 32.329 22.3011 32.25 22.5 32.25H23.25C24.4435 32.25 25.5881 31.7759 26.432 30.932C27.2759 30.0881 27.75 28.9435 27.75 27.75V27C27.75 26.8011 27.829 26.6103 27.9697 26.4697C28.1103 26.329 28.3011 26.25 28.5 26.25C28.6989 26.25 28.8897 26.329 29.0303 26.4697C29.171 26.6103 29.25 26.8011 29.25 27V27.75Z" fill="#FED8EF"/>
</svg>
