<svg width="72" height="72" viewBox="0 0 72 72" fill="none" xmlns="http://www.w3.org/2000/svg">
<rect width="72" height="72" rx="36" fill="#FFC091"/>
<path d="M56.4375 39.645C56.2664 39.7464 56.0621 39.7757 55.8694 39.7265C55.6767 39.6773 55.5115 39.5535 55.41 39.3825C53.8481 36.7575 51.4856 35.2575 48.93 35.2575C48.8535 35.2565 48.7777 35.2439 48.705 35.22C48.4683 35.2448 48.2305 35.2573 47.9925 35.2575C47.7936 35.2575 47.6028 35.1785 47.4622 35.0378C47.3215 34.8972 47.2425 34.7064 47.2425 34.5075C47.2425 34.3086 47.3215 34.1178 47.4622 33.9772C47.6028 33.8365 47.7936 33.7575 47.9925 33.7575C48.9744 33.7572 49.9364 33.4815 50.7695 32.9619C51.6026 32.4422 52.2732 31.6993 52.7052 30.8176C53.1373 29.9359 53.3134 28.9507 53.2136 27.974C53.1138 26.9972 52.7421 26.068 52.1408 25.2919C51.5394 24.5157 50.7324 23.9238 49.8115 23.5833C48.8905 23.2428 47.8926 23.1674 46.931 23.3656C45.9693 23.5638 45.0825 24.0277 44.3713 24.7046C43.6601 25.3815 43.153 26.2443 42.9075 27.195C42.8578 27.3877 42.7335 27.5527 42.5621 27.6538C42.3907 27.7549 42.1861 27.7838 41.9934 27.7341C41.8007 27.6843 41.6357 27.5601 41.5346 27.3887C41.4335 27.2172 41.4046 27.0127 41.4544 26.82C41.7296 25.7527 42.262 24.7691 43.005 23.9551C43.7481 23.141 44.6791 22.5213 45.7169 22.1501C46.7547 21.7788 47.8676 21.6673 48.9583 21.8254C50.0491 21.9834 51.0846 22.4061 51.9743 23.0566C52.8641 23.7071 53.581 24.5656 54.0625 25.557C54.5439 26.5485 54.7753 27.6428 54.7363 28.7442C54.6973 29.8457 54.3892 30.9209 53.8389 31.8759C53.2886 32.8308 52.5129 33.6365 51.5794 34.2225C53.6063 34.9444 55.425 36.4725 56.7 38.625C56.7991 38.7954 56.827 38.9979 56.7779 39.1888C56.7288 39.3797 56.6065 39.5436 56.4375 39.645ZM47.1488 52.125C47.248 52.2971 47.275 52.5016 47.2236 52.6935C47.1723 52.8854 47.0469 53.0492 46.875 53.1487C46.7613 53.2154 46.6318 53.2504 46.5 53.25C46.3685 53.2499 46.2393 53.2151 46.1254 53.1493C46.0116 53.0835 45.917 52.9889 45.8513 52.875C44.8404 51.1614 43.4 49.741 41.6724 48.7543C39.9447 47.7676 37.9896 47.2486 36 47.2486C34.0104 47.2486 32.0553 47.7676 30.3276 48.7543C28.6 49.741 27.1596 51.1614 26.1488 52.875C26.045 53.0382 25.8821 53.1551 25.6942 53.2011C25.5064 53.2471 25.308 53.2188 25.1405 53.122C24.973 53.0252 24.8494 52.8674 24.7955 52.6816C24.7416 52.4958 24.7616 52.2964 24.8513 52.125C26.4792 49.3295 29.1042 47.2531 32.1994 46.3125C30.5593 45.4613 29.2526 44.0841 28.4885 42.4017C27.7243 40.7193 27.5471 38.8291 27.9853 37.034C28.4234 35.2389 29.4514 33.6428 30.9047 32.5016C32.3579 31.3604 34.1522 30.7401 36 30.7401C37.8478 30.7401 39.6421 31.3604 41.0953 32.5016C42.5486 33.6428 43.5766 35.2389 44.0148 37.034C44.4529 38.8291 44.2757 40.7193 43.5116 42.4017C42.7474 44.0841 41.4407 45.4613 39.8006 46.3125C42.8958 47.2531 45.5208 49.3295 47.1488 52.125ZM36 45.75C37.335 45.75 38.6401 45.3541 39.7501 44.6124C40.8601 43.8707 41.7253 42.8165 42.2362 41.5831C42.7471 40.3497 42.8808 38.9925 42.6203 37.6831C42.3599 36.3738 41.717 35.171 40.773 34.227C39.829 33.283 38.6262 32.6401 37.3169 32.3797C36.0075 32.1192 34.6503 32.2529 33.4169 32.7638C32.1835 33.2747 31.1293 34.1399 30.3876 35.2499C29.6459 36.3599 29.25 37.665 29.25 39C29.25 40.7902 29.9612 42.5071 31.227 43.773C32.4929 45.0388 34.2098 45.75 36 45.75ZM24 33.75C23.0181 33.7497 22.0561 33.474 21.223 32.9544C20.39 32.4347 19.7193 31.6918 19.2873 30.8101C18.8552 29.9284 18.6791 28.9432 18.7789 27.9665C18.8787 26.9897 19.2504 26.0605 19.8517 25.2844C20.4531 24.5082 21.2601 23.9163 22.181 23.5758C23.102 23.2353 24.0999 23.1599 25.0615 23.3581C26.0232 23.5563 26.91 24.0202 27.6212 24.6971C28.3324 25.374 28.8395 26.2368 29.085 27.1875C29.1347 27.3802 29.259 27.5452 29.4304 27.6463C29.6018 27.7474 29.8064 27.7763 29.9991 27.7266C30.1918 27.6768 30.3568 27.5526 30.4579 27.3812C30.559 27.2097 30.5879 27.0052 30.5381 26.8125C30.2617 25.7415 29.7264 24.7547 28.9792 23.9392C28.2319 23.1236 27.2957 22.5042 26.2529 22.1353C25.2101 21.7665 24.0926 21.6596 22.9988 21.8241C21.9049 21.9885 20.8683 22.4192 19.98 23.0784C19.0917 23.7375 18.379 24.6048 17.9046 25.6041C17.4302 26.6033 17.2086 27.7038 17.2593 28.8087C17.3101 29.9137 17.6316 30.9893 18.1956 31.9408C18.7596 32.8923 19.5488 33.6907 20.4938 34.2656C18.0568 35.0058 15.9212 36.5073 14.4 38.55C14.2807 38.7091 14.2294 38.9091 14.2575 39.1061C14.2857 39.303 14.3909 39.4806 14.55 39.6C14.7091 39.7193 14.9092 39.7706 15.1061 39.7425C15.303 39.7143 15.4807 39.6091 15.6 39.45C16.5735 38.141 17.8407 37.079 19.2998 36.3495C20.7588 35.62 22.3688 35.2434 24 35.25C24.1989 35.25 24.3897 35.171 24.5303 35.0303C24.671 34.8897 24.75 34.6989 24.75 34.5C24.75 34.3011 24.671 34.1103 24.5303 33.9697C24.3897 33.829 24.1989 33.75 24 33.75Z" fill="#320707"/>
</svg>
