<svg width="72" height="72" viewBox="0 0 72 72" fill="none" xmlns="http://www.w3.org/2000/svg">
<rect width="72" height="72" rx="36" fill="#3A341C"/>
<path d="M57 41.25H48.5513C48.8624 39.5086 48.8077 37.7216 48.3908 36.0025C47.9739 34.2834 47.2038 32.6699 46.1296 31.2645C45.0553 29.8592 43.7004 28.6927 42.1509 27.8393C40.6014 26.986 38.8913 26.4644 37.1294 26.3077C35.3674 26.151 33.5921 26.3626 31.9164 26.9292C30.2406 27.4958 28.7011 28.4048 27.3957 29.5986C26.0903 30.7923 25.0476 32.2446 24.3339 33.8632C23.6202 35.4817 23.251 37.2311 23.25 39C23.2503 39.7544 23.3168 40.5073 23.4488 41.25H15C14.8011 41.25 14.6103 41.329 14.4697 41.4697C14.329 41.6103 14.25 41.8011 14.25 42C14.25 42.1989 14.329 42.3897 14.4697 42.5303C14.6103 42.671 14.8011 42.75 15 42.75H57C57.1989 42.75 57.3897 42.671 57.5303 42.5303C57.671 42.3897 57.75 42.1989 57.75 42C57.75 41.8011 57.671 41.6103 57.5303 41.4697C57.3897 41.329 57.1989 41.25 57 41.25ZM24.75 39C24.7503 37.4274 25.0803 35.8724 25.7186 34.4352C26.357 32.9981 27.2896 31.7107 28.4562 30.6562C29.6228 29.6017 30.9975 28.8035 32.4916 28.3131C33.9858 27.8227 35.5661 27.651 37.1307 27.809C38.6953 27.9671 40.2094 28.4514 41.5752 29.2307C42.9411 30.01 44.1284 31.0671 45.0606 32.3336C45.9927 33.6001 46.649 35.048 46.987 36.5837C47.325 38.1195 47.3373 39.7091 47.0231 41.25H24.9769C24.8261 40.5095 24.7501 39.7557 24.75 39ZM51.75 49.5C51.75 49.6989 51.671 49.8897 51.5303 50.0303C51.3897 50.171 51.1989 50.25 51 50.25H21C20.8011 50.25 20.6103 50.171 20.4697 50.0303C20.329 49.8897 20.25 49.6989 20.25 49.5C20.25 49.3011 20.329 49.1103 20.4697 48.9697C20.6103 48.829 20.8011 48.75 21 48.75H51C51.1989 48.75 51.3897 48.829 51.5303 48.9697C51.671 49.1103 51.75 49.3011 51.75 49.5ZM26.3287 19.8356C26.2397 19.6576 26.2251 19.4515 26.288 19.2627C26.351 19.0738 26.4863 18.9178 26.6644 18.8287C26.8424 18.7397 27.0485 18.7251 27.2373 18.788C27.4261 18.851 27.5822 18.9863 27.6713 19.1644L29.1713 22.1644C29.2603 22.3424 29.2749 22.5485 29.212 22.7373C29.149 22.9261 29.0137 23.0822 28.8356 23.1712C28.6576 23.2603 28.4515 23.2749 28.2627 23.212C28.0739 23.149 27.9178 23.0136 27.8287 22.8356L26.3287 19.8356ZM15.8288 29.6644C15.8728 29.5762 15.9338 29.4975 16.0082 29.4329C16.0826 29.3683 16.1691 29.319 16.2626 29.2878C16.3561 29.2567 16.4549 29.2442 16.5532 29.2513C16.6515 29.2583 16.7475 29.2846 16.8356 29.3287L19.8356 30.8287C20.0137 30.9178 20.149 31.0738 20.212 31.2627C20.2749 31.4515 20.2603 31.6576 20.1712 31.8356C20.0822 32.0136 19.9261 32.149 19.7373 32.212C19.5485 32.2749 19.3424 32.2603 19.1644 32.1712L16.1644 30.6712C16.0762 30.6272 15.9975 30.5662 15.9329 30.4918C15.8683 30.4173 15.819 30.3309 15.7878 30.2374C15.7567 30.1439 15.7442 30.0451 15.7513 29.9468C15.7583 29.8485 15.7846 29.7525 15.8288 29.6644ZM51.8288 31.8356C51.7846 31.7475 51.7583 31.6515 51.7513 31.5532C51.7442 31.4549 51.7567 31.3561 51.7878 31.2626C51.819 31.1691 51.8683 31.0826 51.9329 31.0082C51.9975 30.9337 52.0762 30.8728 52.1644 30.8287L55.1644 29.3287C55.3424 29.2397 55.5485 29.2251 55.7373 29.288C55.9261 29.351 56.0822 29.4863 56.1712 29.6644C56.2603 29.8424 56.2749 30.0485 56.212 30.2373C56.149 30.4261 56.0136 30.5822 55.8356 30.6712L52.8356 32.1712C52.7475 32.2154 52.6515 32.2417 52.5532 32.2487C52.4549 32.2558 52.3561 32.2433 52.2626 32.2121C52.1691 32.181 52.0826 32.1317 52.0082 32.0671C51.9338 32.0025 51.8728 31.9238 51.8288 31.8356ZM42.8288 22.1644L44.3288 19.1644C44.3728 19.0762 44.4338 18.9976 44.5083 18.933C44.5827 18.8685 44.6692 18.8192 44.7627 18.788C44.8562 18.7569 44.9549 18.7444 45.0532 18.7514C45.1515 18.7584 45.2475 18.7847 45.3356 18.8287C45.4238 18.8728 45.5024 18.9338 45.567 19.0083C45.6315 19.0827 45.6808 19.1692 45.712 19.2627C45.7431 19.3562 45.7556 19.4549 45.7486 19.5532C45.7416 19.6515 45.7153 19.7475 45.6712 19.8356L44.1712 22.8356C44.0822 23.0136 43.9261 23.149 43.7373 23.212C43.5485 23.2749 43.3424 23.2603 43.1644 23.1712C42.9863 23.0822 42.851 22.9261 42.788 22.7373C42.7251 22.5485 42.7397 22.3424 42.8288 22.1644Z" fill="#E2FF62"/>
</svg>
